<svg width="250" height="237" viewBox="0 0 250 237" fill="none" xmlns="http://www.w3.org/2000/svg">
<path fill="white" fill-rule="evenodd" clip-rule="evenodd" d="M189.295 2.23358e-05L250 0L246.205 5.86744C243.361 10.2644 241.848 15.3893 241.848 20.6259L241.848 126.93L220.092 140.668L220.092 26.2682C220.092 21.2656 216.037 17.2102 211.034 17.2102H198.353L189.295 2.23358e-05ZM170.29 217.68L159.42 236.702L241.848 236.702L241.848 140.668L220.109 154.274L220.109 181.147C220.109 185.187 217.061 186.736 213.549 183.224L125 96.851V139.857L200.157 213.016C201.904 214.718 202.511 217.68 200.073 217.68H170.29ZM79.71 17.2102L90.5796 4.41507e-05L8.15194 2.36904e-05L8.15197 96.0345L29.8911 82.4277L29.8911 55.5553C29.8911 51.5146 32.9389 49.9662 36.4512 53.4785L125 139.851V96.8446L48.031 21.8742C46.2844 20.173 47.4888 17.2102 49.927 17.2102H79.71ZM58.8934 236.702L0 236.702L3.79517 229.023C6.63918 224.626 8.15219 219.501 8.15219 214.265L8.1522 109.772L29.9078 96.0345L29.9078 208.622C29.9078 213.625 33.9632 217.68 38.9658 217.68H49.8354L58.8934 236.702Z"/>
</svg>
